<svg width="1600" height="560" viewBox="0 0 1600 560" fill="none" xmlns="http://www.w3.org/2000/svg">
  <defs>
    <linearGradient id="paper" x1="56" y1="38" x2="1542" y2="522" gradientUnits="userSpaceOnUse">
      <stop stop-color="#F8F2E8"/>
      <stop offset="0.5" stop-color="#EFE4D4"/>
      <stop offset="1" stop-color="#E4D5C1"/>
    </linearGradient>
    <radialGradient id="washA" cx="0" cy="0" r="1" gradientUnits="userSpaceOnUse" gradientTransform="translate(282 182) rotate(12) scale(364 164)">
      <stop stop-color="#5A8DA0" stop-opacity="0.22"/>
      <stop offset="1" stop-color="#5A8DA0" stop-opacity="0"/>
    </radialGradient>
    <radialGradient id="washB" cx="0" cy="0" r="1" gradientUnits="userSpaceOnUse" gradientTransform="translate(1270 404) rotate(-7) scale(366 172)">
      <stop stop-color="#7A9E84" stop-opacity="0.22"/>
      <stop offset="1" stop-color="#7A9E84" stop-opacity="0"/>
    </radialGradient>
    <linearGradient id="accent" x1="970" y1="112" x2="1364" y2="334" gradientUnits="userSpaceOnUse">
      <stop stop-color="#4F8368"/>
      <stop offset="0.55" stop-color="#7C7A49"/>
      <stop offset="1" stop-color="#9A6935"/>
    </linearGradient>
    <linearGradient id="panelLight" x1="1008" y1="128" x2="1298" y2="292" gradientUnits="userSpaceOnUse">
      <stop stop-color="#FFF9F1" stop-opacity="0.78"/>
      <stop offset="1" stop-color="#FFF9F1" stop-opacity="0.1"/>
    </linearGradient>
    <filter id="soft" x="-24%" y="-24%" width="150%" height="150%">
      <feGaussianBlur stdDeviation="32"/>
    </filter>
    <filter id="shadow" x="-20%" y="-20%" width="150%" height="150%">
      <feDropShadow dx="0" dy="18" stdDeviation="18" flood-color="#7D6951" flood-opacity="0.16"/>
    </filter>
  </defs>

  <rect width="1600" height="560" rx="28" fill="#EFE8DD"/>
  <rect x="42" y="32" width="1516" height="496" rx="30" fill="url(#paper)" stroke="#CAB9A2" stroke-opacity="0.56"/>
  <rect x="82" y="42" width="1436" height="476" rx="24" fill="#F5EEE4" fill-opacity="0.22" stroke="#96876E" stroke-opacity="0.22"/>

  <g opacity="0.18">
    <path d="M82 112H1518" stroke="#355161" stroke-opacity="0.12"/>
    <path d="M82 176H1518" stroke="#355161" stroke-opacity="0.06"/>
    <path d="M82 240H1518" stroke="#355161" stroke-opacity="0.08"/>
    <path d="M82 304H1518" stroke="#355161" stroke-opacity="0.06"/>
    <path d="M82 368H1518" stroke="#355161" stroke-opacity="0.08"/>
    <path d="M82 432H1518" stroke="#355161" stroke-opacity="0.06"/>
  </g>

  <g filter="url(#soft)">
    <ellipse cx="282" cy="182" rx="364" ry="164" fill="url(#washA)"/>
    <ellipse cx="1270" cy="404" rx="366" ry="172" fill="url(#washB)"/>
  </g>

  <g>
    <rect x="96" y="86" width="170" height="36" rx="18" fill="#FFFFFF" fill-opacity="0.64" stroke="#355161" stroke-opacity="0.18"/>
    <circle cx="120" cy="104" r="5" fill="#1B6A85"/>
    <text x="138" y="110" fill="#3A5664" font-family="'Microsoft YaHei UI', 'PingFang SC', sans-serif" font-size="15" letter-spacing="2">公开工程</text>
  </g>

  <g>
    <text x="96" y="226" fill="#182838" font-family="'Microsoft YaHei UI', 'PingFang SC', sans-serif" font-size="112" font-weight="700" letter-spacing="4">Aegis</text>
    <text x="98" y="300" fill="#274B5E" font-family="'Microsoft YaHei UI', 'PingFang SC', sans-serif" font-size="54" font-weight="700">多租户用户平台</text>
    <text x="100" y="360" fill="#315C6F" font-family="'Microsoft YaHei UI', 'PingFang SC', sans-serif" font-size="30" font-weight="600">高并发 · 强隔离 · 低耦合 · 实时通信</text>
    <text x="100" y="408" fill="#5D6F79" font-family="'Microsoft YaHei UI', 'PingFang SC', sans-serif" font-size="24">Gin · PostgreSQL · Redis · NATS · Temporal · Coraza</text>
  </g>

  <g filter="url(#shadow)">
    <path d="M1044 110L1372 190L1252 336L924 256L1044 110Z" fill="#F0E5D4" fill-opacity="0.4" stroke="url(#accent)" stroke-width="2.4"/>
    <path d="M1044 110L1208 150L1148 222L986 182L1044 110Z" fill="url(#panelLight)"/>
    <path d="M1208 150L1372 190L1312 262L1148 222L1208 150Z" fill="#FFF8EF" fill-opacity="0.24"/>
    <path d="M986 182L1148 222L1090 294L924 256L986 182Z" fill="#D7C9B5" fill-opacity="0.34"/>
    <path d="M1148 222L1312 262L1252 336L1090 294L1148 222Z" fill="#FFF7EA" fill-opacity="0.16"/>
    <path d="M1208 150L1090 294" stroke="#FFFFFF" stroke-opacity="0.28"/>
    <path d="M986 182L1312 262" stroke="#FFFFFF" stroke-opacity="0.18"/>
  </g>

  <g>
    <rect x="1016" y="352" width="454" height="98" rx="20" fill="#F8F2E9" fill-opacity="0.54" stroke="#A5977E" stroke-opacity="0.18"/>
    <path d="M1046 386H1440" stroke="#355161" stroke-opacity="0.14"/>
    <path d="M1046 420H1440" stroke="#355161" stroke-opacity="0.1"/>
    <path d="M1244 370V438" stroke="#355161" stroke-opacity="0.08"/>
    <text x="1066" y="381" fill="#193143" font-family="'Microsoft YaHei UI', 'PingFang SC', sans-serif" font-size="19" font-weight="600">统一运行时</text>
    <text x="1268" y="381" fill="#193143" font-family="'Microsoft YaHei UI', 'PingFang SC', sans-serif" font-size="19" font-weight="600">在线状态索引</text>
    <text x="1066" y="415" fill="#48606D" font-family="'Microsoft YaHei UI', 'PingFang SC', sans-serif" font-size="19">事件驱动后台处理</text>
    <text x="1268" y="415" fill="#48606D" font-family="'Microsoft YaHei UI', 'PingFang SC', sans-serif" font-size="19">跨实例实时分发</text>
  </g>
</svg>
