<svg width="1600" height="560" viewBox="0 0 1600 560" fill="none" xmlns="http://www.w3.org/2000/svg">
  <defs>
    <linearGradient id="bg" x1="0" y1="0" x2="1600" y2="560" gradientUnits="userSpaceOnUse">
      <stop stop-color="#07111D"/>
      <stop offset="0.52" stop-color="#0B1F36"/>
      <stop offset="1" stop-color="#133A57"/>
    </linearGradient>
    <linearGradient id="beam" x1="94" y1="82" x2="1312" y2="438" gradientUnits="userSpaceOnUse">
      <stop stop-color="#47D7FF"/>
      <stop offset="0.5" stop-color="#7AF6D8"/>
      <stop offset="1" stop-color="#AFFF7F"/>
    </linearGradient>
    <filter id="blur" x="-20%" y="-20%" width="140%" height="140%">
      <feGaussianBlur stdDeviation="40"/>
    </filter>
  </defs>

  <rect width="1600" height="560" rx="28" fill="url(#bg)"/>
  <rect x="52" y="48" width="1496" height="464" rx="24" stroke="white" stroke-opacity="0.08"/>

  <g opacity="0.22">
    <path d="M88 96H1512" stroke="white" stroke-opacity="0.16"/>
    <path d="M88 148H1512" stroke="white" stroke-opacity="0.08"/>
    <path d="M88 200H1512" stroke="white" stroke-opacity="0.12"/>
    <path d="M88 252H1512" stroke="white" stroke-opacity="0.08"/>
    <path d="M88 304H1512" stroke="white" stroke-opacity="0.12"/>
    <path d="M88 356H1512" stroke="white" stroke-opacity="0.08"/>
    <path d="M88 408H1512" stroke="white" stroke-opacity="0.12"/>
    <path d="M160 72V488" stroke="white" stroke-opacity="0.08"/>
    <path d="M320 72V488" stroke="white" stroke-opacity="0.06"/>
    <path d="M480 72V488" stroke="white" stroke-opacity="0.08"/>
    <path d="M640 72V488" stroke="white" stroke-opacity="0.06"/>
    <path d="M800 72V488" stroke="white" stroke-opacity="0.08"/>
    <path d="M960 72V488" stroke="white" stroke-opacity="0.06"/>
    <path d="M1120 72V488" stroke="white" stroke-opacity="0.08"/>
    <path d="M1280 72V488" stroke="white" stroke-opacity="0.06"/>
    <path d="M1440 72V488" stroke="white" stroke-opacity="0.08"/>
  </g>

  <g filter="url(#blur)" opacity="0.4">
    <ellipse cx="390" cy="170" rx="220" ry="90" fill="#37C8FF"/>
    <ellipse cx="1180" cy="390" rx="290" ry="110" fill="#6DFFB1"/>
  </g>

  <g>
    <rect x="96" y="88" width="176" height="34" rx="17" fill="white" fill-opacity="0.08" stroke="white" stroke-opacity="0.16"/>
    <circle cx="120" cy="105" r="5" fill="#52D5FF"/>
    <text x="138" y="111" fill="#DDF7FF" font-family="Segoe UI, Arial, sans-serif" font-size="15" letter-spacing="2.6">PUBLIC ENGINEERING</text>
  </g>

  <g>
    <text x="96" y="232" fill="white" font-family="Segoe UI, Arial, sans-serif" font-size="118" font-weight="700" letter-spacing="8">AEGIS</text>
    <text x="98" y="286" fill="#98EBFF" font-family="Segoe UI, Arial, sans-serif" font-size="23" letter-spacing="5">GO PLATFORM FOR MULTI-TENANT USER SYSTEMS</text>
    <text x="98" y="352" fill="#ECF7FF" font-family="Segoe UI, Arial, sans-serif" font-size="30" font-weight="600">Gin · PostgreSQL · Redis · NATS · Temporal</text>
    <text x="98" y="400" fill="#B7CFDF" font-family="Segoe UI, Arial, sans-serif" font-size="24">High concurrency, strong isolation, realtime-ready architecture.</text>
  </g>

  <g opacity="0.95">
    <path d="M1068 122L1324 186L1222 312L970 250L1068 122Z" stroke="url(#beam)" stroke-width="2.2"/>
    <path d="M1118 148L1230 176L1184 230L1073 202L1118 148Z" fill="#C9FAFF" fill-opacity="0.14"/>
    <path d="M1232 178L1294 194L1248 248L1185 232L1232 178Z" fill="#D9FFF4" fill-opacity="0.1"/>
    <path d="M1076 210L1184 236L1136 292L1030 266L1076 210Z" fill="#D9FFF4" fill-opacity="0.08"/>
    <path d="M970 360H1490" stroke="url(#beam)" stroke-opacity="0.34"/>
    <path d="M970 392H1490" stroke="white" stroke-opacity="0.1"/>
    <path d="M970 424H1490" stroke="white" stroke-opacity="0.08"/>
    <text x="984" y="384" fill="#E6FBFF" font-family="Consolas, 'Courier New', monospace" font-size="18">runtime: unified / api + worker</text>
    <text x="984" y="414" fill="#D2ECF5" font-family="Consolas, 'Courier New', monospace" font-size="18">presence: redis ttl index</text>
    <text x="984" y="444" fill="#D2ECF5" font-family="Consolas, 'Courier New', monospace" font-size="18">fanout: nats targeted subjects</text>
  </g>
</svg>
