<svg width="1600" height="560" viewBox="0 0 1600 560" fill="none" xmlns="http://www.w3.org/2000/svg">
  <defs>
    <linearGradient id="bg" x1="0" y1="0" x2="1600" y2="560" gradientUnits="userSpaceOnUse">
      <stop stop-color="#050B14"/>
      <stop offset="0.48" stop-color="#0A1A2C"/>
      <stop offset="1" stop-color="#102C44"/>
    </linearGradient>
    <radialGradient id="orbA" cx="0" cy="0" r="1" gradientUnits="userSpaceOnUse" gradientTransform="translate(286 174) rotate(18) scale(384 204)">
      <stop stop-color="#2ED4FF" stop-opacity="0.38"/>
      <stop offset="1" stop-color="#2ED4FF" stop-opacity="0"/>
    </radialGradient>
    <radialGradient id="orbB" cx="0" cy="0" r="1" gradientUnits="userSpaceOnUse" gradientTransform="translate(1222 412) rotate(-9) scale(420 188)">
      <stop stop-color="#73FFB8" stop-opacity="0.24"/>
      <stop offset="1" stop-color="#73FFB8" stop-opacity="0"/>
    </radialGradient>
    <linearGradient id="frame" x1="986" y1="108" x2="1368" y2="324" gradientUnits="userSpaceOnUse">
      <stop stop-color="#67DBFF"/>
      <stop offset="1" stop-color="#9FFF9A"/>
    </linearGradient>
    <linearGradient id="glass" x1="980" y1="120" x2="1280" y2="286" gradientUnits="userSpaceOnUse">
      <stop stop-color="#E7FFFF" stop-opacity="0.32"/>
      <stop offset="1" stop-color="#A3FFF0" stop-opacity="0.04"/>
    </linearGradient>
    <filter id="glow" x="-30%" y="-30%" width="160%" height="160%">
      <feGaussianBlur stdDeviation="42"/>
    </filter>
    <filter id="shadow" x="-20%" y="-20%" width="150%" height="150%">
      <feDropShadow dx="0" dy="24" stdDeviation="24" flood-color="#021019" flood-opacity="0.45"/>
    </filter>
  </defs>

  <rect width="1600" height="560" rx="28" fill="url(#bg)"/>
  <rect x="48" y="44" width="1504" height="472" rx="28" fill="#0B1B2C" fill-opacity="0.32" stroke="white" stroke-opacity="0.08"/>

  <g opacity="0.16">
    <path d="M48 110H1552" stroke="white" stroke-opacity="0.18"/>
    <path d="M48 174H1552" stroke="white" stroke-opacity="0.08"/>
    <path d="M48 238H1552" stroke="white" stroke-opacity="0.1"/>
    <path d="M48 302H1552" stroke="white" stroke-opacity="0.08"/>
    <path d="M48 366H1552" stroke="white" stroke-opacity="0.1"/>
    <path d="M48 430H1552" stroke="white" stroke-opacity="0.08"/>
    <path d="M116 44V516" stroke="white" stroke-opacity="0.06"/>
    <path d="M284 44V516" stroke="white" stroke-opacity="0.05"/>
    <path d="M452 44V516" stroke="white" stroke-opacity="0.06"/>
    <path d="M620 44V516" stroke="white" stroke-opacity="0.05"/>
    <path d="M788 44V516" stroke="white" stroke-opacity="0.06"/>
    <path d="M956 44V516" stroke="white" stroke-opacity="0.05"/>
    <path d="M1124 44V516" stroke="white" stroke-opacity="0.06"/>
    <path d="M1292 44V516" stroke="white" stroke-opacity="0.05"/>
    <path d="M1460 44V516" stroke="white" stroke-opacity="0.06"/>
  </g>

  <g filter="url(#glow)">
    <ellipse cx="286" cy="174" rx="384" ry="204" fill="url(#orbA)"/>
    <ellipse cx="1222" cy="412" rx="420" ry="188" fill="url(#orbB)"/>
  </g>

  <g filter="url(#shadow)">
    <path d="M1012 114L1362 198L1244 338L894 254L1012 114Z" fill="#091A29" fill-opacity="0.58" stroke="url(#frame)" stroke-width="2.4"/>
    <path d="M1012 114L1188 156L1128 228L952 186L1012 114Z" fill="url(#glass)"/>
    <path d="M1188 156L1362 198L1302 270L1128 228L1188 156Z" fill="#E4FFFF" fill-opacity="0.09"/>
    <path d="M952 186L1128 228L1068 300L894 254L952 186Z" fill="#071624" fill-opacity="0.46"/>
    <path d="M1128 228L1302 270L1244 338L1068 300L1128 228Z" fill="#B5FFF0" fill-opacity="0.08"/>
    <path d="M1188 156L1068 300" stroke="white" stroke-opacity="0.18"/>
    <path d="M952 186L1302 270" stroke="white" stroke-opacity="0.14"/>
    <path d="M1128 228L1244 338" stroke="white" stroke-opacity="0.08"/>
  </g>

  <g>
    <rect x="94" y="88" width="166" height="36" rx="18" fill="white" fill-opacity="0.08" stroke="white" stroke-opacity="0.16"/>
    <circle cx="122" cy="106" r="5" fill="#57D3FF"/>
    <text x="140" y="112" fill="#DDF8FF" font-family="Segoe UI, Arial, sans-serif" font-size="15" letter-spacing="2.8">GO PLATFORM</text>
  </g>

  <g>
    <text x="90" y="236" fill="white" font-family="Segoe UI, Arial, sans-serif" font-size="118" font-weight="700" letter-spacing="10">AEGIS</text>
    <text x="96" y="292" fill="#9DEBFF" font-family="Segoe UI, Arial, sans-serif" font-size="23" letter-spacing="5.4">HIGH-PERFORMANCE MULTI-TENANT USER PLATFORM</text>
    <text x="96" y="356" fill="#EAF7FF" font-family="Segoe UI, Arial, sans-serif" font-size="30" font-weight="600">Gin · PostgreSQL · Redis · NATS · Temporal · Coraza</text>
    <text x="96" y="404" fill="#B8CDDC" font-family="Segoe UI, Arial, sans-serif" font-size="24">Low coupling, async-first execution, isolated tenants, secure realtime orchestration.</text>
  </g>

  <g>
    <rect x="932" y="362" width="518" height="96" rx="20" fill="#0B1A29" fill-opacity="0.58" stroke="white" stroke-opacity="0.08"/>
    <path d="M960 394H1422" stroke="url(#frame)" stroke-opacity="0.34"/>
    <path d="M960 428H1422" stroke="white" stroke-opacity="0.08"/>
    <path d="M1186 376V444" stroke="white" stroke-opacity="0.08"/>
    <text x="980" y="388" fill="#E7FBFF" font-family="Consolas, 'Courier New', monospace" font-size="18">runtime: api + worker unification</text>
    <text x="1208" y="388" fill="#E7FBFF" font-family="Consolas, 'Courier New', monospace" font-size="18">presence: redis ttl graph</text>
    <text x="980" y="422" fill="#D0EAF4" font-family="Consolas, 'Courier New', monospace" font-size="18">fanout: nats targeted subjects</text>
    <text x="1208" y="422" fill="#D0EAF4" font-family="Consolas, 'Courier New', monospace" font-size="18">workflow: temporal durable jobs</text>
  </g>

  <g opacity="0.98">
    <rect x="94" y="456" width="126" height="36" rx="18" fill="#0F2943" stroke="#6FE0FF" stroke-opacity="0.42"/>
    <text x="122" y="480" fill="#DFFBFF" font-family="Segoe UI, Arial, sans-serif" font-size="18" font-weight="600">API</text>
    <rect x="234" y="456" width="156" height="36" rx="18" fill="#0F2943" stroke="#6FE0FF" stroke-opacity="0.42"/>
    <text x="268" y="480" fill="#DFFBFF" font-family="Segoe UI, Arial, sans-serif" font-size="18" font-weight="600">WORKER</text>
    <rect x="404" y="456" width="170" height="36" rx="18" fill="#0F2943" stroke="#6FE0FF" stroke-opacity="0.42"/>
    <text x="434" y="480" fill="#DFFBFF" font-family="Segoe UI, Arial, sans-serif" font-size="18" font-weight="600">REALTIME</text>
    <rect x="588" y="456" width="170" height="36" rx="18" fill="#0F2943" stroke="#6FE0FF" stroke-opacity="0.42"/>
    <text x="620" y="480" fill="#DFFBFF" font-family="Segoe UI, Arial, sans-serif" font-size="18" font-weight="600">SECURITY</text>
  </g>
</svg>
