<svg width="1600" height="560" viewBox="0 0 1600 560" fill="none" xmlns="http://www.w3.org/2000/svg">
  <defs>
    <linearGradient id="bg" x1="0" y1="0" x2="1600" y2="560" gradientUnits="userSpaceOnUse">
      <stop stop-color="#F4F5F7"/>
      <stop offset="0.52" stop-color="#EAEDF1"/>
      <stop offset="1" stop-color="#E1E6EC"/>
    </linearGradient>
    <linearGradient id="ink" x1="1060" y1="120" x2="1320" y2="300" gradientUnits="userSpaceOnUse">
      <stop stop-color="#233B53"/>
      <stop offset="1" stop-color="#4B6E7E"/>
    </linearGradient>
    <filter id="soft" x="-20%" y="-20%" width="140%" height="140%">
      <feGaussianBlur stdDeviation="32"/>
    </filter>
  </defs>

  <rect width="1600" height="560" rx="28" fill="url(#bg)"/>
  <rect x="52" y="52" width="1496" height="456" rx="24" fill="#FFFFFF" fill-opacity="0.54" stroke="#22384D" stroke-opacity="0.1"/>

  <g opacity="0.16">
    <path d="M96 114H1504" stroke="#22384D" stroke-opacity="0.14"/>
    <path d="M96 170H1504" stroke="#22384D" stroke-opacity="0.08"/>
    <path d="M96 226H1504" stroke="#22384D" stroke-opacity="0.12"/>
    <path d="M96 282H1504" stroke="#22384D" stroke-opacity="0.08"/>
    <path d="M96 338H1504" stroke="#22384D" stroke-opacity="0.12"/>
    <path d="M96 394H1504" stroke="#22384D" stroke-opacity="0.08"/>
  </g>

  <g filter="url(#soft)" opacity="0.12">
    <ellipse cx="1214" cy="210" rx="190" ry="120" fill="#2A5362"/>
    <ellipse cx="330" cy="382" rx="240" ry="90" fill="#8296A3"/>
  </g>

  <g>
    <rect x="98" y="88" width="190" height="34" rx="17" fill="#F9FBFC" stroke="#22384D" stroke-opacity="0.1"/>
    <circle cx="120" cy="105" r="5" fill="#2F5668"/>
    <text x="138" y="111" fill="#415868" font-family="'Yu Gothic UI', 'Hiragino Sans', sans-serif" font-size="15" letter-spacing="1.8">PUBLIC REPOSITORY</text>
  </g>

  <g>
    <text x="96" y="210" fill="#172532" font-family="'Segoe UI', Arial, sans-serif" font-size="112" font-weight="700" letter-spacing="8">Aegis</text>
    <text x="98" y="286" fill="#22394E" font-family="'Yu Gothic UI', 'Hiragino Sans', sans-serif" font-size="48" font-weight="700">マルチテナントユーザープラットフォーム</text>
    <text x="100" y="346" fill="#425A69" font-family="'Yu Gothic UI', 'Hiragino Sans', sans-serif" font-size="28" font-weight="600">高並列 / 低結合 / リアルタイム対応 / 運用志向</text>
    <text x="100" y="394" fill="#607482" font-family="'Yu Gothic UI', 'Hiragino Sans', sans-serif" font-size="24">Gin · PostgreSQL · Redis · NATS · Temporal</text>
  </g>

  <g opacity="0.95">
    <circle cx="1248" cy="188" r="118" stroke="url(#ink)" stroke-width="2"/>
    <circle cx="1248" cy="188" r="76" stroke="#7A919E" stroke-opacity="0.34"/>
    <circle cx="1248" cy="188" r="18" fill="#223C51"/>
    <path d="M1248 70V306" stroke="#223C51" stroke-opacity="0.18"/>
    <path d="M1130 188H1366" stroke="#223C51" stroke-opacity="0.18"/>
    <path d="M1162 102L1334 274" stroke="#223C51" stroke-opacity="0.12"/>
    <path d="M1334 102L1162 274" stroke="#223C51" stroke-opacity="0.12"/>
    <rect x="1044" y="340" width="404" height="108" rx="18" fill="#FFFFFF" fill-opacity="0.56" stroke="#22384D" stroke-opacity="0.1"/>
    <text x="1072" y="378" fill="#203649" font-family="'Yu Gothic UI', 'Hiragino Sans', sans-serif" font-size="20">統合ランタイム</text>
    <text x="1220" y="378" fill="#203649" font-family="'Yu Gothic UI', 'Hiragino Sans', sans-serif" font-size="20">Redis Presence</text>
    <text x="1072" y="414" fill="#556C79" font-family="'Yu Gothic UI', 'Hiragino Sans', sans-serif" font-size="20">NATS Fan-out</text>
    <text x="1220" y="414" fill="#556C79" font-family="'Yu Gothic UI', 'Hiragino Sans', sans-serif" font-size="20">Temporal Workflow</text>
  </g>
</svg>
