<svg width="1600" height="560" viewBox="0 0 1600 560" fill="none" xmlns="http://www.w3.org/2000/svg">
  <defs>
    <linearGradient id="bg" x1="0" y1="0" x2="1600" y2="560" gradientUnits="userSpaceOnUse">
      <stop stop-color="#08111F"/>
      <stop offset="0.52" stop-color="#0E2239"/>
      <stop offset="1" stop-color="#13314F"/>
    </linearGradient>
    <linearGradient id="glow" x1="220" y1="94" x2="1220" y2="450" gradientUnits="userSpaceOnUse">
      <stop stop-color="#33D1FF" stop-opacity="0.9"/>
      <stop offset="0.5" stop-color="#47F2C4" stop-opacity="0.55"/>
      <stop offset="1" stop-color="#86FF7A" stop-opacity="0.18"/>
    </linearGradient>
    <linearGradient id="line" x1="0" y1="0" x2="1" y2="1">
      <stop stop-color="#59D2FF"/>
      <stop offset="1" stop-color="#8EF7B2"/>
    </linearGradient>
    <filter id="soft" x="-40%" y="-40%" width="180%" height="180%">
      <feGaussianBlur stdDeviation="32"/>
    </filter>
  </defs>

  <rect width="1600" height="560" rx="28" fill="url(#bg)"/>

  <g opacity="0.2">
    <path d="M0 70H1600" stroke="white" stroke-opacity="0.12"/>
    <path d="M0 130H1600" stroke="white" stroke-opacity="0.06"/>
    <path d="M0 190H1600" stroke="white" stroke-opacity="0.08"/>
    <path d="M0 250H1600" stroke="white" stroke-opacity="0.06"/>
    <path d="M0 310H1600" stroke="white" stroke-opacity="0.08"/>
    <path d="M0 370H1600" stroke="white" stroke-opacity="0.06"/>
    <path d="M0 430H1600" stroke="white" stroke-opacity="0.08"/>
    <path d="M120 0V560" stroke="white" stroke-opacity="0.05"/>
    <path d="M320 0V560" stroke="white" stroke-opacity="0.06"/>
    <path d="M520 0V560" stroke="white" stroke-opacity="0.05"/>
    <path d="M720 0V560" stroke="white" stroke-opacity="0.06"/>
    <path d="M920 0V560" stroke="white" stroke-opacity="0.05"/>
    <path d="M1120 0V560" stroke="white" stroke-opacity="0.06"/>
    <path d="M1320 0V560" stroke="white" stroke-opacity="0.05"/>
    <path d="M1520 0V560" stroke="white" stroke-opacity="0.06"/>
  </g>

  <g filter="url(#soft)">
    <ellipse cx="420" cy="170" rx="280" ry="120" fill="#1FB6FF" fill-opacity="0.22"/>
    <ellipse cx="1110" cy="392" rx="340" ry="120" fill="#4ADE80" fill-opacity="0.14"/>
  </g>

  <g opacity="0.92">
    <path d="M1110 122L1324 188L1224 306L1014 244L1110 122Z" stroke="url(#line)" stroke-width="2"/>
    <path d="M1184 132L1262 156L1224 200L1147 178L1184 132Z" fill="#B7F7FF" fill-opacity="0.18"/>
    <path d="M1080 200L1164 224L1122 270L1040 246L1080 200Z" fill="#D6FFF5" fill-opacity="0.14"/>
    <path d="M1210 222L1292 246L1248 292L1168 268L1210 222Z" fill="#D6FFF5" fill-opacity="0.1"/>
    <path d="M1108 122L1207 154L1169 198L1068 166L1108 122Z" stroke="white" stroke-opacity="0.22"/>
    <path d="M1068 166L1169 198L1127 244L1026 212L1068 166Z" stroke="white" stroke-opacity="0.16"/>
    <path d="M1207 154L1308 186L1266 232L1169 198L1207 154Z" stroke="white" stroke-opacity="0.16"/>
    <path d="M1169 198L1266 232L1224 276L1127 244L1169 198Z" stroke="white" stroke-opacity="0.14"/>
  </g>

  <g>
    <rect x="92" y="88" width="154" height="34" rx="17" fill="white" fill-opacity="0.09" stroke="white" stroke-opacity="0.16"/>
    <circle cx="118" cy="105" r="5" fill="#57D3FF"/>
    <text x="136" y="111" fill="#D9F4FF" font-family="Segoe UI, Arial, sans-serif" font-size="15" letter-spacing="2.8">GO PLATFORM</text>
  </g>

  <g>
    <text x="88" y="242" fill="white" font-family="Segoe UI, Arial, sans-serif" font-size="118" font-weight="700" letter-spacing="10">AEGIS</text>
    <text x="94" y="294" fill="#95E8FF" font-family="Segoe UI, Arial, sans-serif" font-size="23" letter-spacing="6">HIGH-PERFORMANCE MULTI-TENANT USER PLATFORM</text>
    <text x="94" y="356" fill="#E5F2FF" font-family="Segoe UI, Arial, sans-serif" font-size="30" font-weight="600">
      Gin · PostgreSQL · Redis · NATS · Temporal · Coraza
    </text>
    <text x="94" y="404" fill="#B8CCDA" font-family="Segoe UI, Arial, sans-serif" font-size="24">
      Low coupling, async-first execution, strong tenant isolation, realtime-ready runtime.
    </text>
  </g>

  <g opacity="0.95">
    <rect x="92" y="456" width="126" height="36" rx="18" fill="#0F2943" stroke="#6FE0FF" stroke-opacity="0.42"/>
    <text x="121" y="480" fill="#DFFBFF" font-family="Segoe UI, Arial, sans-serif" font-size="18" font-weight="600">API</text>
    <rect x="232" y="456" width="156" height="36" rx="18" fill="#0F2943" stroke="#6FE0FF" stroke-opacity="0.42"/>
    <text x="266" y="480" fill="#DFFBFF" font-family="Segoe UI, Arial, sans-serif" font-size="18" font-weight="600">WORKER</text>
    <rect x="402" y="456" width="170" height="36" rx="18" fill="#0F2943" stroke="#6FE0FF" stroke-opacity="0.42"/>
    <text x="432" y="480" fill="#DFFBFF" font-family="Segoe UI, Arial, sans-serif" font-size="18" font-weight="600">REALTIME</text>
    <rect x="586" y="456" width="170" height="36" rx="18" fill="#0F2943" stroke="#6FE0FF" stroke-opacity="0.42"/>
    <text x="619" y="480" fill="#DFFBFF" font-family="Segoe UI, Arial, sans-serif" font-size="18" font-weight="600">SECURITY</text>
  </g>
</svg>
