<svg width="1600" height="560" viewBox="0 0 1600 560" fill="none" xmlns="http://www.w3.org/2000/svg">
  <defs>
    <linearGradient id="bg" x1="0" y1="0" x2="1600" y2="560" gradientUnits="userSpaceOnUse">
      <stop stop-color="#07111D"/>
      <stop offset="0.5" stop-color="#0B1E33"/>
      <stop offset="1" stop-color="#143A57"/>
    </linearGradient>
    <radialGradient id="mistA" cx="0" cy="0" r="1" gradientUnits="userSpaceOnUse" gradientTransform="translate(334 164) rotate(15) scale(374 194)">
      <stop stop-color="#46D8FF" stop-opacity="0.42"/>
      <stop offset="1" stop-color="#46D8FF" stop-opacity="0"/>
    </radialGradient>
    <radialGradient id="mistB" cx="0" cy="0" r="1" gradientUnits="userSpaceOnUse" gradientTransform="translate(1220 394) rotate(-12) scale(418 186)">
      <stop stop-color="#80FFBF" stop-opacity="0.24"/>
      <stop offset="1" stop-color="#80FFBF" stop-opacity="0"/>
    </radialGradient>
    <linearGradient id="beam" x1="980" y1="106" x2="1372" y2="336" gradientUnits="userSpaceOnUse">
      <stop stop-color="#53D9FF"/>
      <stop offset="1" stop-color="#A5FF9A"/>
    </linearGradient>
    <linearGradient id="surface" x1="978" y1="122" x2="1306" y2="290" gradientUnits="userSpaceOnUse">
      <stop stop-color="#DFFFFF" stop-opacity="0.32"/>
      <stop offset="1" stop-color="#9BFFF0" stop-opacity="0.04"/>
    </linearGradient>
    <filter id="blur" x="-24%" y="-24%" width="150%" height="150%">
      <feGaussianBlur stdDeviation="40"/>
    </filter>
    <filter id="shadow" x="-20%" y="-20%" width="150%" height="150%">
      <feDropShadow dx="0" dy="22" stdDeviation="24" flood-color="#02101B" flood-opacity="0.46"/>
    </filter>
  </defs>

  <rect width="1600" height="560" rx="28" fill="url(#bg)"/>
  <rect x="46" y="42" width="1508" height="476" rx="28" fill="#0A1929" fill-opacity="0.22" stroke="white" stroke-opacity="0.08"/>

  <g opacity="0.18">
    <path d="M46 108H1554" stroke="white" stroke-opacity="0.16"/>
    <path d="M46 172H1554" stroke="white" stroke-opacity="0.08"/>
    <path d="M46 236H1554" stroke="white" stroke-opacity="0.1"/>
    <path d="M46 300H1554" stroke="white" stroke-opacity="0.08"/>
    <path d="M46 364H1554" stroke="white" stroke-opacity="0.1"/>
    <path d="M46 428H1554" stroke="white" stroke-opacity="0.08"/>
    <path d="M118 42V518" stroke="white" stroke-opacity="0.05"/>
    <path d="M290 42V518" stroke="white" stroke-opacity="0.05"/>
    <path d="M462 42V518" stroke="white" stroke-opacity="0.05"/>
    <path d="M634 42V518" stroke="white" stroke-opacity="0.05"/>
    <path d="M806 42V518" stroke="white" stroke-opacity="0.05"/>
    <path d="M978 42V518" stroke="white" stroke-opacity="0.05"/>
    <path d="M1150 42V518" stroke="white" stroke-opacity="0.05"/>
    <path d="M1322 42V518" stroke="white" stroke-opacity="0.05"/>
    <path d="M1494 42V518" stroke="white" stroke-opacity="0.05"/>
  </g>

  <g filter="url(#blur)">
    <ellipse cx="334" cy="164" rx="374" ry="194" fill="url(#mistA)"/>
    <ellipse cx="1220" cy="394" rx="418" ry="186" fill="url(#mistB)"/>
  </g>

  <g>
    <rect x="96" y="88" width="188" height="36" rx="18" fill="white" fill-opacity="0.08" stroke="white" stroke-opacity="0.16"/>
    <circle cx="122" cy="106" r="5" fill="#52D5FF"/>
    <text x="140" y="112" fill="#DDF7FF" font-family="Segoe UI, Arial, sans-serif" font-size="15" letter-spacing="2.4">PUBLIC ENGINEERING</text>
  </g>

  <g>
    <text x="96" y="232" fill="white" font-family="Segoe UI, Arial, sans-serif" font-size="118" font-weight="700" letter-spacing="8">AEGIS</text>
    <text x="98" y="286" fill="#98EBFF" font-family="Segoe UI, Arial, sans-serif" font-size="23" letter-spacing="5">GO PLATFORM FOR MULTI-TENANT USER SYSTEMS</text>
    <text x="98" y="352" fill="#ECF7FF" font-family="Segoe UI, Arial, sans-serif" font-size="30" font-weight="600">Gin · PostgreSQL · Redis · NATS · Temporal · Coraza</text>
    <text x="98" y="400" fill="#B7CFDF" font-family="Segoe UI, Arial, sans-serif" font-size="24">High concurrency, strong isolation, durable workflows, realtime-ready architecture.</text>
  </g>

  <g filter="url(#shadow)">
    <path d="M1026 116L1370 198L1250 340L906 258L1026 116Z" fill="#0A1C2C" fill-opacity="0.58" stroke="url(#beam)" stroke-width="2.4"/>
    <path d="M1026 116L1198 157L1138 228L966 187L1026 116Z" fill="url(#surface)"/>
    <path d="M1198 157L1370 198L1310 270L1138 228L1198 157Z" fill="#E9FFFF" fill-opacity="0.1"/>
    <path d="M966 187L1138 228L1078 300L906 258L966 187Z" fill="#071726" fill-opacity="0.44"/>
    <path d="M1138 228L1310 270L1250 340L1078 300L1138 228Z" fill="#C3FFF0" fill-opacity="0.08"/>
    <path d="M1198 157L1078 300" stroke="white" stroke-opacity="0.18"/>
    <path d="M966 187L1310 270" stroke="white" stroke-opacity="0.14"/>
  </g>

  <g>
    <rect x="924" y="358" width="536" height="102" rx="22" fill="#0B1A2A" fill-opacity="0.54" stroke="white" stroke-opacity="0.08"/>
    <path d="M954 392H1432" stroke="url(#beam)" stroke-opacity="0.34"/>
    <path d="M954 426H1432" stroke="white" stroke-opacity="0.08"/>
    <path d="M1188 372V444" stroke="white" stroke-opacity="0.08"/>
    <text x="976" y="386" fill="#E6FBFF" font-family="Consolas, 'Courier New', monospace" font-size="18">runtime: unified / api + worker</text>
    <text x="1210" y="386" fill="#E6FBFF" font-family="Consolas, 'Courier New', monospace" font-size="18">presence: redis ttl graph</text>
    <text x="976" y="420" fill="#D2ECF5" font-family="Consolas, 'Courier New', monospace" font-size="18">fanout: nats targeted subjects</text>
    <text x="1210" y="420" fill="#D2ECF5" font-family="Consolas, 'Courier New', monospace" font-size="18">workflow: temporal durable jobs</text>
  </g>
</svg>
