<svg width="1600" height="560" viewBox="0 0 1600 560" fill="none" xmlns="http://www.w3.org/2000/svg">
  <defs>
    <linearGradient id="bg" x1="0" y1="0" x2="1600" y2="560" gradientUnits="userSpaceOnUse">
      <stop stop-color="#F3F5F7"/>
      <stop offset="0.48" stop-color="#E8EDF1"/>
      <stop offset="1" stop-color="#DEE6EC"/>
    </linearGradient>
    <radialGradient id="fogA" cx="0" cy="0" r="1" gradientUnits="userSpaceOnUse" gradientTransform="translate(320 170) rotate(10) scale(340 156)">
      <stop stop-color="#8AA1B0" stop-opacity="0.18"/>
      <stop offset="1" stop-color="#8AA1B0" stop-opacity="0"/>
    </radialGradient>
    <radialGradient id="fogB" cx="0" cy="0" r="1" gradientUnits="userSpaceOnUse" gradientTransform="translate(1236 382) rotate(-8) scale(340 162)">
      <stop stop-color="#627A88" stop-opacity="0.16"/>
      <stop offset="1" stop-color="#627A88" stop-opacity="0"/>
    </radialGradient>
    <linearGradient id="ink" x1="1026" y1="98" x2="1380" y2="332" gradientUnits="userSpaceOnUse">
      <stop stop-color="#233B53"/>
      <stop offset="1" stop-color="#5A7382"/>
    </linearGradient>
    <filter id="soft" x="-24%" y="-24%" width="150%" height="150%">
      <feGaussianBlur stdDeviation="32"/>
    </filter>
    <filter id="shadow" x="-20%" y="-20%" width="150%" height="150%">
      <feDropShadow dx="0" dy="16" stdDeviation="16" flood-color="#7C8F9C" flood-opacity="0.18"/>
    </filter>
  </defs>

  <rect width="1600" height="560" rx="28" fill="url(#bg)"/>
  <rect x="50" y="44" width="1500" height="472" rx="28" fill="#FFFFFF" fill-opacity="0.52" stroke="#22384D" stroke-opacity="0.1"/>

  <g opacity="0.15">
    <path d="M88 110H1512" stroke="#22384D" stroke-opacity="0.14"/>
    <path d="M88 174H1512" stroke="#22384D" stroke-opacity="0.08"/>
    <path d="M88 238H1512" stroke="#22384D" stroke-opacity="0.1"/>
    <path d="M88 302H1512" stroke="#22384D" stroke-opacity="0.08"/>
    <path d="M88 366H1512" stroke="#22384D" stroke-opacity="0.1"/>
    <path d="M88 430H1512" stroke="#22384D" stroke-opacity="0.08"/>
  </g>

  <g filter="url(#soft)">
    <ellipse cx="320" cy="170" rx="340" ry="156" fill="url(#fogA)"/>
    <ellipse cx="1236" cy="382" rx="340" ry="162" fill="url(#fogB)"/>
  </g>

  <g>
    <rect x="98" y="88" width="198" height="36" rx="18" fill="#FAFBFC" stroke="#22384D" stroke-opacity="0.1"/>
    <circle cx="122" cy="106" r="5" fill="#30586A"/>
    <text x="140" y="112" fill="#455B69" font-family="'Yu Gothic UI', 'Hiragino Sans', sans-serif" font-size="15" letter-spacing="1.8">PUBLIC REPOSITORY</text>
  </g>

  <g>
    <text x="98" y="220" fill="#172532" font-family="'Segoe UI', Arial, sans-serif" font-size="112" font-weight="700" letter-spacing="8">Aegis</text>
    <text x="100" y="294" fill="#22394E" font-family="'Yu Gothic UI', 'Hiragino Sans', sans-serif" font-size="48" font-weight="700">マルチテナントユーザープラットフォーム</text>
    <text x="102" y="352" fill="#425A69" font-family="'Yu Gothic UI', 'Hiragino Sans', sans-serif" font-size="28" font-weight="600">高並列 / 低結合 / リアルタイム対応 / 運用志向</text>
    <text x="102" y="400" fill="#607482" font-family="'Yu Gothic UI', 'Hiragino Sans', sans-serif" font-size="24">Gin · PostgreSQL · Redis · NATS · Temporal · Coraza</text>
  </g>

  <g filter="url(#shadow)">
    <path d="M1044 106L1370 186L1250 334L924 254L1044 106Z" fill="#F7FAFC" fill-opacity="0.64" stroke="url(#ink)" stroke-width="2.3"/>
    <path d="M1044 106L1208 146L1148 220L986 180L1044 106Z" fill="#FFFFFF" fill-opacity="0.58"/>
    <path d="M1208 146L1370 186L1310 260L1148 220L1208 146Z" fill="#EFF4F7" fill-opacity="0.42"/>
    <path d="M986 180L1148 220L1090 294L924 254L986 180Z" fill="#D7E0E7" fill-opacity="0.46"/>
    <path d="M1148 220L1310 260L1250 334L1090 294L1148 220Z" fill="#E8EEF3" fill-opacity="0.32"/>
    <path d="M1208 146L1090 294" stroke="#95A6B1" stroke-opacity="0.36"/>
    <path d="M986 180L1310 260" stroke="#95A6B1" stroke-opacity="0.24"/>
  </g>

  <g>
    <rect x="1030" y="348" width="426" height="104" rx="22" fill="#FFFFFF" fill-opacity="0.58" stroke="#22384D" stroke-opacity="0.1"/>
    <path d="M1060 384H1426" stroke="#22384D" stroke-opacity="0.12"/>
    <path d="M1060 420H1426" stroke="#22384D" stroke-opacity="0.08"/>
    <path d="M1244 366V438" stroke="#22384D" stroke-opacity="0.08"/>
    <text x="1080" y="379" fill="#203649" font-family="'Yu Gothic UI', 'Hiragino Sans', sans-serif" font-size="20" font-weight="600">統合ランタイム</text>
    <text x="1264" y="379" fill="#203649" font-family="'Yu Gothic UI', 'Hiragino Sans', sans-serif" font-size="20" font-weight="600">Redis Presence</text>
    <text x="1080" y="415" fill="#556C79" font-family="'Yu Gothic UI', 'Hiragino Sans', sans-serif" font-size="20">NATS Fan-out</text>
    <text x="1264" y="415" fill="#556C79" font-family="'Yu Gothic UI', 'Hiragino Sans', sans-serif" font-size="20">Temporal Workflow</text>
  </g>
</svg>
