<svg width="1600" height="560" viewBox="0 0 1600 560" fill="none" xmlns="http://www.w3.org/2000/svg">
  <defs>
    <linearGradient id="bg" x1="88" y1="44" x2="1486" y2="514" gradientUnits="userSpaceOnUse">
      <stop stop-color="#F6F0E7"/>
      <stop offset="0.48" stop-color="#EEE5D8"/>
      <stop offset="1" stop-color="#E5D8C5"/>
    </linearGradient>
    <linearGradient id="accent" x1="150" y1="80" x2="1300" y2="460" gradientUnits="userSpaceOnUse">
      <stop stop-color="#0F5B78"/>
      <stop offset="0.52" stop-color="#1F7A6D"/>
      <stop offset="1" stop-color="#A46A2A"/>
    </linearGradient>
    <filter id="soft" x="-20%" y="-20%" width="140%" height="140%">
      <feGaussianBlur stdDeviation="34"/>
    </filter>
  </defs>

  <rect width="1600" height="560" rx="28" fill="#F5EFE6"/>
  <rect x="42" y="42" width="1516" height="476" rx="26" fill="url(#bg)" stroke="#1B2D3A" stroke-opacity="0.12"/>

  <g opacity="0.22">
    <path d="M92 110H1508" stroke="#173040" stroke-opacity="0.14"/>
    <path d="M92 164H1508" stroke="#173040" stroke-opacity="0.08"/>
    <path d="M92 218H1508" stroke="#173040" stroke-opacity="0.12"/>
    <path d="M92 272H1508" stroke="#173040" stroke-opacity="0.08"/>
    <path d="M92 326H1508" stroke="#173040" stroke-opacity="0.12"/>
    <path d="M92 380H1508" stroke="#173040" stroke-opacity="0.08"/>
    <path d="M92 434H1508" stroke="#173040" stroke-opacity="0.12"/>
  </g>

  <g filter="url(#soft)" opacity="0.18">
    <ellipse cx="310" cy="180" rx="240" ry="88" fill="#1F7A6D"/>
    <ellipse cx="1184" cy="372" rx="260" ry="104" fill="#0F5B78"/>
  </g>

  <g>
    <rect x="96" y="88" width="170" height="34" rx="17" fill="#FFFFFF" fill-opacity="0.5" stroke="#173040" stroke-opacity="0.14"/>
    <circle cx="118" cy="105" r="5" fill="#145F77"/>
    <text x="136" y="111" fill="#385363" font-family="'Microsoft YaHei UI', 'PingFang SC', sans-serif" font-size="15" letter-spacing="2">公开工程</text>
  </g>

  <g>
    <text x="94" y="220" fill="#162430" font-family="'Microsoft YaHei UI', 'PingFang SC', sans-serif" font-size="108" font-weight="700" letter-spacing="6">Aegis</text>
    <text x="96" y="294" fill="#21485B" font-family="'Microsoft YaHei UI', 'PingFang SC', sans-serif" font-size="52" font-weight="700">多租户用户平台</text>
    <text x="98" y="352" fill="#2B5568" font-family="'Microsoft YaHei UI', 'PingFang SC', sans-serif" font-size="30" font-weight="600">高并发 · 强隔离 · 低耦合 · 实时通信</text>
    <text x="98" y="400" fill="#536A78" font-family="'Microsoft YaHei UI', 'PingFang SC', sans-serif" font-size="24">Gin · PostgreSQL · Redis · NATS · Temporal · Coraza</text>
  </g>

  <g opacity="0.96">
    <path d="M1048 114L1340 186L1236 312L944 240L1048 114Z" fill="#F2E8D8" fill-opacity="0.24" stroke="url(#accent)" stroke-width="2.2"/>
    <path d="M1048 114L1194 150L1142 213L996 177L1048 114Z" fill="#FFFFFF" fill-opacity="0.3"/>
    <path d="M1194 150L1340 186L1288 249L1142 213L1194 150Z" fill="#FFFFFF" fill-opacity="0.18"/>
    <path d="M996 177L1142 213L1090 276L944 240L996 177Z" fill="#D8CCBA" fill-opacity="0.28"/>
    <path d="M1142 213L1288 249L1236 312L1090 276L1142 213Z" fill="#FFFFFF" fill-opacity="0.12"/>
    <path d="M1194 150L1090 276" stroke="#FFFFFF" stroke-opacity="0.2"/>
    <path d="M996 177L1288 249" stroke="#FFFFFF" stroke-opacity="0.14"/>

    <rect x="1022" y="350" width="450" height="94" rx="14" fill="#F8F4EC" fill-opacity="0.36"/>
    <path d="M1050 381H1444" stroke="#173040" stroke-opacity="0.14"/>
    <path d="M1050 415H1444" stroke="#173040" stroke-opacity="0.1"/>
    <path d="M1240 362V432" stroke="#173040" stroke-opacity="0.08"/>
    <text x="1070" y="376" fill="#163142" font-family="'Microsoft YaHei UI', 'PingFang SC', sans-serif" font-size="19" font-weight="600">统一运行时</text>
    <text x="1266" y="376" fill="#163142" font-family="'Microsoft YaHei UI', 'PingFang SC', sans-serif" font-size="19" font-weight="600">在线状态索引</text>
    <text x="1070" y="410" fill="#355362" font-family="'Microsoft YaHei UI', 'PingFang SC', sans-serif" font-size="19">事件驱动后台处理</text>
    <text x="1266" y="410" fill="#355362" font-family="'Microsoft YaHei UI', 'PingFang SC', sans-serif" font-size="19">跨实例实时分发</text>
  </g>
</svg>
